<?xml version="1.0" encoding="UTF-8" standalone="no"?>
<!-- Created with Inkscape (http://www.inkscape.org/) -->

<svg
   width="160mm"
   height="160mm"
   viewBox="0 0 159.99999 160.00001"
   version="1.1"
   id="svg1"
   xml:space="preserve"
   inkscape:version="1.3 (0e150ed6c4, 2023-07-21)"
   sodipodi:docname="typewritter_icon.svg"
   inkscape:export-filename="typewritter_icon_enabled.png"
   inkscape:export-xdpi="5.0614309"
   inkscape:export-ydpi="5.0614309"
   xmlns:inkscape="http://www.inkscape.org/namespaces/inkscape"
   xmlns:sodipodi="http://sodipodi.sourceforge.net/DTD/sodipodi-0.dtd"
   xmlns="http://www.w3.org/2000/svg"
   xmlns:svg="http://www.w3.org/2000/svg"><sodipodi:namedview
     id="namedview1"
     pagecolor="#ffffff"
     bordercolor="#000000"
     borderopacity="0.25"
     inkscape:showpageshadow="2"
     inkscape:pageopacity="0.0"
     inkscape:pagecheckerboard="0"
     inkscape:deskcolor="#d1d1d1"
     inkscape:document-units="mm"
     showguides="true"
     inkscape:zoom="0.69219276"
     inkscape:cx="-7.2234214"
     inkscape:cy="347.44657"
     inkscape:window-width="1920"
     inkscape:window-height="991"
     inkscape:window-x="-9"
     inkscape:window-y="-9"
     inkscape:window-maximized="1"
     inkscape:current-layer="layer3" /><defs
     id="defs1" /><g
     inkscape:groupmode="layer"
     id="layer2"
     inkscape:label="Layer 2"
     transform="translate(-28.706466,-86.444874)"><g
       id="g86"
       transform="translate(3.7064725,12.917526)"><path
         id="path9"
         style="opacity:1;fill:#000000;stroke:#2b0000;stroke-width:0.264583"
         d="M 68.113879,86.577165 V 106.26278 H 54.066674 v 4.77801 h 16.72301 v -2.67581 h 9.937895 v 2.67581 H 105 129.27242 v -2.67581 h 9.9379 v 2.67581 h 16.72301 v -4.77801 H 141.88612 V 86.577165 H 105 Z" /><rect
         style="opacity:1;fill:#000000;stroke:#2b0000;stroke-width:0.264583"
         id="rect9"
         width="17.296331"
         height="4.4913077"
         x="43.650566"
         y="94.317566" /><path
         id="rect10"
         style="opacity:1;fill:#000000;stroke:#2b0000;stroke-width:0.264583"
         d="m 42.217268,106.07158 v 9.19944 h -7.931816 v -4.09794 h -5.446695 v 13.2457 h 5.446695 v -4.89944 h 7.931816 v 8.43514 h 6.115906 v -21.8829 z" /><path
         style="opacity:1;fill:#000000;stroke:#2b0000;stroke-width:0.264583"
         d="M 95.348437,121.74324 H 54.066585 v -6.59363 h 46.442085 z"
         id="path15" /><path
         id="rect18"
         style="opacity:1;fill:#000000;stroke:#2b0000;stroke-width:0.264583"
         d="m 101.70304,122.93774 v 11.467 H 105 h 3.29696 v -11.467 H 105 Z" /><path
         id="path21"
         style="opacity:1;fill:#000000;stroke:#2b0000;stroke-width:0.264583"
         d="m 58.677245,127.29613 a 46.32502,38.785763 0 0 0 0.747758,7.35149 c 0.0049,-4e-5 8.020308,-0.0516 9.763746,-0.29043 1.743963,-0.2389 5.375479,-1.31389 6.187736,-1.36167 0.812259,-0.0478 6.654374,-0.0899 6.654374,-0.0899 0,0 -2.010378,1.2499 -2.517159,1.47795 -0.506783,0.22805 -11.267036,6.22487 -11.976529,6.32623 -0.709497,0.10135 -0.9802,-0.1349 -1.622125,0.13539 -0.636837,0.26814 -3.727671,1.48741 -3.77703,1.50688 A 46.32502,38.785763 0 0 0 81.558019,161.15556 46.32502,38.785763 0 0 0 105,166.47513 a 46.32502,38.785763 0 0 0 23.44198,-5.31957 46.32502,38.785763 0 0 0 19.42001,-18.80351 c -0.0494,-0.0195 -3.14019,-1.23874 -3.77703,-1.50688 -0.64192,-0.27029 -0.91264,-0.034 -1.62213,-0.13539 -0.7095,-0.10136 -11.46975,-6.09818 -11.97653,-6.32623 -0.50679,-0.22805 -2.51716,-1.47795 -2.51716,-1.47795 0,0 5.84212,0.0421 6.65438,0.0899 0.81226,0.0478 4.44377,1.12277 6.18774,1.36167 1.74343,0.23884 9.75874,0.29039 9.76374,0.29043 a 46.32502,38.785763 0 0 0 0.74776,-7.35149 l -30.27154,0.26561 a 16.053205,14.79805 0 0 1 -7.92769,12.90412 16.053205,14.79805 0 0 1 -8.12353,1.95337 16.053205,14.79805 0 0 1 -8.123536,-1.95337 16.053205,14.79805 0 0 1 -7.927681,-12.90412 z m 25.319902,7.53029 1.282092,2.50424 -12.912907,9.56117 -2.674772,-3.70003 z m 42.005713,0 14.30558,8.36538 -2.67477,3.70003 -12.91291,-9.56117 z m -39.523694,4.25865 1.729093,1.98283 -10.211779,11.04325 -3.377054,-2.90215 z m 37.041664,0 11.85975,10.12393 -3.37706,2.90215 -10.21178,-11.04325 z m -33.812403,3.35845 2.295467,1.64796 -7.381979,12.10056 -4.000273,-2.24948 z m 30.583143,0 9.08679,11.49904 -4.00027,2.24948 -7.38198,-12.10056 z m -26.358596,2.77348 2.301153,1.0175 -4.516521,12.70776 -4.354256,-1.51877 z m 22.134046,0 6.56963,12.20649 -4.35426,1.51877 -4.51652,-12.70776 z m -17.496603,1.77146 2.638603,0.55398 -1.745634,12.9651 -4.71289,-0.7891 z m 12.859163,0 3.81992,12.72998 -4.71289,0.7891 -1.74563,-12.9651 z m -7.9623,0.79634 1.53272,0.009 1.53272,-0.009 0.84285,12.98422 -2.37557,0.008 -2.37557,-0.008 z" /><ellipse
         style="opacity:1;fill:#000000;stroke:#2b0000;stroke-width:0.25593"
         id="path30"
         cx="58.571922"
         cy="180.84711"
         rx="4.5096626"
         ry="4.2950854" /><ellipse
         style="opacity:1;fill:#000000;stroke:#2b0000;stroke-width:0.25593"
         id="ellipse31"
         cx="69.991425"
         cy="180.84711"
         rx="4.5096626"
         ry="4.2950854" /><ellipse
         style="opacity:1;fill:#000000;stroke:#2b0000;stroke-width:0.25593"
         id="ellipse32"
         cx="81.410927"
         cy="180.84711"
         rx="4.5096626"
         ry="4.2950854" /><ellipse
         style="opacity:1;fill:#000000;stroke:#2b0000;stroke-width:0.25593"
         id="ellipse33"
         cx="92.830429"
         cy="180.84711"
         rx="4.5096626"
         ry="4.2950854" /><path
         id="ellipse34"
         style="opacity:1;fill:#000000;stroke:#2b0000;stroke-width:0.25593"
         d="m 105,176.55203 a 4.5096626,4.2950854 0 0 0 -4.5098,4.29483 4.5096626,4.2950854 0 0 0 4.5098,4.29535 4.5096626,4.2950854 0 0 0 4.5098,-4.29535 4.5096626,4.2950854 0 0 0 -1.48104,-3.18223 4.5096626,4.2950854 0 0 0 -5.2e-4,0 4.5096626,4.2950854 0 0 0 -0.34158,-0.26717 4.5096626,4.2950854 0 0 0 -5.2e-4,0 A 4.5096626,4.2950854 0 0 0 105,176.55203 Z" /><ellipse
         style="opacity:1;fill:#000000;stroke:#2b0000;stroke-width:0.25593"
         id="ellipse35"
         cx="58.704216"
         cy="193.82074"
         rx="4.5096626"
         ry="4.2950854" /><ellipse
         style="opacity:1;fill:#000000;stroke:#2b0000;stroke-width:0.25593"
         id="ellipse36"
         cx="72.826553"
         cy="193.82074"
         rx="4.5096626"
         ry="4.2950854" /><ellipse
         style="opacity:1;fill:#000000;stroke:#2b0000;stroke-width:0.25593"
         id="ellipse37"
         cx="86.048553"
         cy="193.82074"
         rx="4.5096626"
         ry="4.2950854" /><ellipse
         style="opacity:1;fill:#000000;stroke:#2b0000;stroke-width:0.25593"
         id="ellipse38"
         cx="98.211334"
         cy="193.82074"
         rx="4.5096626"
         ry="4.2950854" /><path
         id="rect41"
         style="opacity:1;fill:#000000;stroke:#2b0000;stroke-width:0.264583"
         d="m 71.983927,203.78758 v 0.0238 a 2.7234557,2.720402 0 0 0 -2.389002,2.69648 2.7234557,2.720402 0 0 0 2.389002,2.69648 v 0.0238 H 72.318274 105 h 32.68173 0.33435 v -0.0238 a 2.7234557,2.720402 0 0 0 2.389,-2.69648 2.7234557,2.720402 0 0 0 -2.389,-2.69648 v -0.0238 H 137.68173 105 72.318274 Z" /><path
         id="path60"
         style="opacity:1;fill:#000000;stroke:#2b0000;stroke-width:0.264583"
         d="m 50.922163,133.92983 a 2.8590426,2.4073308 0 0 0 -2.803963,1.96474 l -0.0062,-5.2e-4 -0.0026,0.0336 a 2.8590426,2.4073308 0 0 0 -0.04651,0.40928 2.8590426,2.4073308 0 0 0 0.0088,0.10232 l -5.231205,70.82823 c -0.142426,1.75684 0.06679,13.21004 12.533602,13.21005 H 105 154.62592 c 12.46678,-1e-5 12.67603,-11.45321 12.5336,-13.21005 l -5.23121,-70.82823 a 2.8590426,2.4073308 0 0 0 0.009,-0.10232 2.8590426,2.4073308 0 0 0 -0.0465,-0.40928 l -0.003,-0.0336 -0.006,5.2e-4 a 2.8590426,2.4073308 0 0 0 -2.80396,-1.96474 2.8590426,2.4073308 0 0 0 -2.85874,2.40709 l 5.25291,70.93055 c 0.10691,1.44325 -0.29173,7.70289 -6.84609,7.70289 H 105 55.374088 c -6.554363,0 -6.953001,-6.25964 -6.846094,-7.70289 l 5.252909,-70.93055 a 2.8590426,2.4073308 0 0 0 -2.85874,-2.40709 z" /><rect
         style="opacity:1;fill:#000000;stroke:#2b0000;stroke-width:0.264583"
         id="rect61"
         width="17.296331"
         height="4.4913077"
         x="-166.34941"
         y="94.317566"
         transform="scale(-1,1)" /><path
         id="path62"
         style="opacity:1;fill:#000000;stroke:#2b0000;stroke-width:0.264583"
         d="m 167.78272,106.07158 v 9.19944 h 7.93181 v -4.09794 h 5.4467 v 13.2457 h -5.4467 v -4.89944 h -7.93181 v 8.43514 h -6.11591 v -21.8829 z" /><path
         style="opacity:1;fill:#000000;stroke:#2b0000;stroke-width:0.264583"
         d="m 114.65154,121.74324 h 41.28186 v -6.59363 h -46.44209 z"
         id="path63" /><ellipse
         style="opacity:1;fill:#000000;stroke:#2b0000;stroke-width:0.25593"
         id="ellipse64"
         cx="-151.42807"
         cy="180.84711"
         rx="4.5096626"
         ry="4.2950854"
         transform="scale(-1,1)" /><ellipse
         style="opacity:1;fill:#000000;stroke:#2b0000;stroke-width:0.25593"
         id="ellipse65"
         cx="-140.00856"
         cy="180.84711"
         rx="4.5096626"
         ry="4.2950854"
         transform="scale(-1,1)" /><ellipse
         style="opacity:1;fill:#000000;stroke:#2b0000;stroke-width:0.25593"
         id="ellipse66"
         cx="-128.58905"
         cy="180.84711"
         rx="4.5096626"
         ry="4.2950854"
         transform="scale(-1,1)" /><ellipse
         style="opacity:1;fill:#000000;stroke:#2b0000;stroke-width:0.25593"
         id="ellipse67"
         cx="-117.16956"
         cy="180.84711"
         rx="4.5096626"
         ry="4.2950854"
         transform="scale(-1,1)" /><ellipse
         style="opacity:1;fill:#000000;stroke:#2b0000;stroke-width:0.25593"
         id="ellipse69"
         cx="-151.29576"
         cy="193.82074"
         rx="4.5096626"
         ry="4.2950854"
         transform="scale(-1,1)" /><ellipse
         style="opacity:1;fill:#000000;stroke:#2b0000;stroke-width:0.25593"
         id="ellipse70"
         cx="-137.17342"
         cy="193.82074"
         rx="4.5096626"
         ry="4.2950854"
         transform="scale(-1,1)" /><ellipse
         style="opacity:1;fill:#000000;stroke:#2b0000;stroke-width:0.25593"
         id="ellipse71"
         cx="-123.95143"
         cy="193.82074"
         rx="4.5096626"
         ry="4.2950854"
         transform="scale(-1,1)" /><ellipse
         style="opacity:1;fill:#000000;stroke:#2b0000;stroke-width:0.25593"
         id="ellipse72"
         cx="-111.78865"
         cy="193.82074"
         rx="4.5096626"
         ry="4.2950854"
         transform="scale(-1,1)" /></g></g><g
     inkscape:groupmode="layer"
     id="layer3"
     inkscape:label="Layer 3"
     style="display:none"><path
       style="fill:#000000;stroke:#ff0000;stroke-width:20;stroke-dasharray:none"
       d="M -0.293502,151.5825 160.2935,8.417502"
       id="path86" /><path
       style="fill:#000000;stroke:#ff0000;stroke-width:20;stroke-dasharray:none"
       d="M 160.2935,151.5825 -0.293502,8.417502"
       id="path87" /></g></svg>
